#!OML:ASF H:\Dans Jumps\Project 1\Capture day 1\Session 1\subject.ASF
:FULLY-SPECIFIED
:DEGREES
288
root 0.566792 16.0032 -15.5242 20.4214 0.0107787 -1.95632
lowerback 13.5318 -0.067555 -0.00182022
upperback 6.46357 -0.0421495 2.28932
thorax -0.791029 -0.0568249 2.39203
lowerneck -16.9962 0.641836 -1.60388
upperneck 12.0612 1.4405 -1.20188
head 6.44967 0.513969 0.0215983
rclavicle -1.39149e-015 -7.35503e-015
rhumerus -29.3426 -16.8373 -77.2252
rradius 22.9701
rwrist 33.768
rhand -19.0385 -26.3856
rfingers 7.12502
rthumb 7.26803 -56.2408
lclavicle -1.39149e-015 -7.35503e-015
lhumerus -24.3433 3.91773 85.9157
lradius 14.8666
lwrist -0.262884
lhand -25.751 -4.42924
lfingers 7.12502
lthumb 0.786206 25.5491
rfemur -54.0668 -0.926115 20.9766
rtibia 58.9766
rfoot -29.267 -11.1118
rtoes 0.777613
lfemur -53.1631 5.47319 -18.7283
ltibia 58.554
lfoot -26.4003 16.6111
ltoes -7.82599
289
root 0.558863 15.9967 -15.4994 20.658 0.0789406 -1.95039
lowerback 13.6688 -0.0586289 -0.0350846
upperback 6.43194 -0.0317954 2.28944
thorax -0.897796 -0.0514788 2.41052
lowerneck -17.0485 0.622342 -1.60906
upperneck 11.8915 1.40961 -1.17668
head 6.40351 0.50287 0.0271242
rclavicle 6.75868e-015 1.11319e-014
rhumerus -29.3458 -16.6936 -77.324
rradius 23.0344
rwrist 33.6315
rhand -19.0017 -26.3462
rfingers 7.12502
rthumb 7.30348 -56.2001
lclavicle 6.75868e-015 1.11319e-014
lhumerus -24.3509 3.79672 85.9462
lradius 14.9499
lwrist -0.0508804
lhand -25.7486 -4.43768
lfingers 7.12502
lthumb 0.788597 25.5406
rfemur -54.2966 -0.861738 20.9885
rtibia 59.1409
rfoot -29.5527 -11.2949
rtoes 0.768417
lfemur -53.3975 5.40146 -18.6939
ltibia 58.6913
lfoot -26.5739 16.7599
ltoes -7.88487
290
root 0.55071 15.9899 -15.4733 20.9056 0.144713 -1.94054
lowerback 13.8059 -0.0506299 -0.0713978
upperback 6.38788 -0.0229774 2.28624
thorax -1.01764 -0.0467017 2.42749
lowerneck -17.1033 0.605246 -1.61268
upperneck 11.7302 1.38211 -1.15296
head 6.36049 0.493206 0.0323006
rclavicle 2.38542e-015 -1.47101e-014
rhumerus -29.3397 -16.5814 -77.4145
rradius 23.0806
rwrist 33.5303
rhand -18.9738 -26.2873
rfingers 7.12502
rthumb 7.3304 -56.1403
lclavicle 2.38542e-015 -1.47101e-014
lhumerus -24.365 3.71055 85.957
lradius 15.0392
lwrist 0.139685
lhand -25.7295 -4.43749
lfingers 7.12502
lthumb 0.806999 25.5407
rfemur -54.4629 -0.798982 20.997
rtibia 59.1
rfoot -29.6972 -11.4459
rtoes 0.778239
lfemur -53.5646 5.3352 -18.666
ltibia 58.6182
lfoot -26.6167 16.8679
ltoes -7.94627
291
root 0.542382 15.9827 -15.446 21.1596 0.211098 -1.9294
lowerback 13.9488 -0.0447152 -0.108292
upperback 6.33476 -0.016874 2.28222
thorax -1.1499 -0.0430814 2.44438
lowerneck -17.1607 0.590763 -1.61384
upperneck 11.5693 1.35848 -1.13427
head 6.31814 0.48504 0.035867
rclavicle -2.78299e-015 -3.73715e-014
rhumerus -29.3203 -16.4936 -77.4974
rradius 23.1113
rwrist 33.4594
rhand -18.9566 -26.2118
rfingers 7.12502
rthumb 7.34703 -56.0643
lclavicle -2.78299e-015 -3.73715e-014
lhumerus -24.3767 3.69898 85.9392
lradius 15.1221
lwrist 0.276473
lhand -25.6949 -4.42813
lfingers 7.12502
lthumb 0.840455 25.55
rfemur -54.6343 -0.737756 21.0052
rtibia 59.0628
rfoot -29.8305 -11.5982
rtoes 0.78832
lfemur -53.7361 5.27258 -18.6405
ltibia 58.5506
lfoot -26.6648 16.9822
ltoes -7.99433
292
root 0.533691 16.0662 -15.4214 21.4151 0.276375 -1.918
lowerback 14.0982 -0.0397476 -0.145681
upperback 6.27786 -0.0121143 2.27705
thorax -1.28955 -0.0399919 2.46061
lowerneck -17.2289 0.577722 -1.61479
upperneck 11.4108 1.337 -1.11501
head 6.27832 0.477878 0.0398485
rclavicle 5.36719e-015 -1.59028e-014
rhumerus -29.2835 -16.4226 -77.5792
rradius 23.1337
rwrist 33.4039
rhand -18.9429 -26.1464
rfingers 7.12502
rthumb 7.36026 -55.9984
lclavicle 5.36719e-015 -1.59028e-014
lhumerus -24.3778 3.76908 85.8899
lradius 15.1965
lwrist 0.359617
lhand -25.6208 -4.37344
lfingers 7.12502
lthumb 0.911983 25.6044
rfemur -54.4404 -0.665819 21.0196
rtibia 58.6672
rfoot -29.954 -11.7612
rtoes 0.785957
lfemur -53.5497 5.20688 -18.6229
ltibia 58.1324
lfoot -26.7105 17.1084
ltoes -8.02877
293
root 0.524903 16.0583 -15.3916 21.6748 0.33909 -1.90795
lowerback 14.2555 -0.0346202 -0.185786
upperback 6.21378 -0.00739978 2.27371
thorax -1.44091 -0.036809 2.48041
lowerneck -17.3043 0.565825 -1.61809
upperneck 11.2517 1.3181 -1.09743
head 6.23954 0.471669 0.0439498
rclavicle -7.15625e-015 -7.7526e-015
rhumerus -29.2325 -16.3525 -77.6591
rradius 23.1524
rwrist 33.3387
rhand -18.9307 -26.0855
rfingers 7.12502
rthumb 7.372 -55.9371
lclavicle -7.15625e-015 -7.7526e-015
lhumerus -24.3663 3.94503 85.8076
lradius 15.2464
lwrist 0.372311
lhand -25.5497 -4.31966
lfingers 7.12502
lthumb 0.980692 25.6578
rfemur -54.6156 -0.600173 21.0296
rtibia 58.6419
rfoot -30.0682 -11.9152
rtoes 0.764621
lfemur -53.7228 5.15634 -18.5979
ltibia 58.0807
lfoot -26.7578 17.2254
ltoes -8.05303
294
root 0.516007 16.0494 -15.3606 21.935 0.400465 -1.90121
lowerback 14.4149 -0.0293342 -0.223382
upperback 6.1523 -0.00235319 2.27112
thorax -1.59066 -0.0333922 2.49957
lowerneck -17.3889 0.553892 -1.62703
upperneck 11.0812 1.29998 -1.07587
head 6.19854 0.466008 0.0503184
rclavicle 2.38542e-015 2.5842e-015
rhumerus -29.1612 -16.2438 -77.7584
rradius 23.1936
rwrist 33.2161
rhand -18.927 -26.0583
rfingers 7.12502
rthumb 7.37563 -55.9098
lclavicle 2.38542e-015 2.5842e-015
lhumerus -24.3227 4.21525 85.6952
lradius 15.2693
lwrist 0.34072
lhand -25.493 -4.28242
lfingers 7.12502
lthumb 1.03545 25.6948
rfemur -54.795 -0.534242 21.0443
rtibia 58.6303
rfoot -30.1757 -12.0689
rtoes 0.734652
lfemur -53.9003 5.11105 -18.569
ltibia 58.0443
lfoot -26.7982 17.3421
ltoes -8.06968
